<svg width="80" height="80" viewBox="0 0 80 80" fill="none" xmlns="http://www.w3.org/2000/svg">
<path d="M39.9687 5.96094C20.6484 5.95313 5 21.5938 5 40.8984C5 56.1641 14.7891 69.1406 28.4219 73.9062C30.2578 74.3672 29.9766 73.0625 29.9766 72.1719V66.1172C19.375 67.3594 18.9453 60.3438 18.2344 59.1719C16.7969 56.7188 13.3984 56.0938 14.4141 54.9219C16.8281 53.6797 19.2891 55.2344 22.1406 59.4453C24.2031 62.5 28.2266 61.9844 30.2656 61.4766C30.7109 59.6406 31.6641 58 32.9766 56.7266C21.9922 54.7578 17.4141 48.0547 17.4141 40.0859C17.4141 36.2188 18.6875 32.6641 21.1875 29.7969C19.5938 25.0703 21.3359 21.0234 21.5703 20.4219C26.1094 20.0156 30.8281 23.6719 31.1953 23.9609C33.7734 23.2656 36.7187 22.8984 40.0156 22.8984C43.3281 22.8984 46.2812 23.2813 48.8828 23.9844C49.7656 23.3125 54.1406 20.1719 58.3594 20.5547C58.5859 21.1563 60.2891 25.1094 58.7891 29.7734C61.3203 32.6484 62.6094 36.2344 62.6094 40.1094C62.6094 48.0938 58 54.8047 46.9844 56.7422C47.9279 57.6701 48.6771 58.7767 49.1881 59.9973C49.6992 61.218 49.9619 62.5282 49.9609 63.8516V72.6406C50.0234 73.3438 49.9609 74.0391 51.1328 74.0391C64.9687 69.375 74.9297 56.3047 74.9297 40.9062C74.9297 21.5938 59.2734 5.96094 39.9687 5.96094Z" fill="white"/>
</svg>
