<svg width="131" height="80" viewBox="0 0 131 80" fill="none" xmlns="http://www.w3.org/2000/svg">
<g clip-path="url(#clip0_530_8982)">
<path d="M30.9727 20.8844H55.6282V22.8568H33.2334V37.7004H54.2925V39.6728H33.2334V55.9697H55.8848V57.9422H30.9727V20.8844ZM57.8366 20.8844H60.4566L72.0651 37.1813L83.9304 20.8844L100.069 0.18396L73.5548 38.8942L87.2178 57.9422H84.4951L72.0651 40.6071L59.5838 57.9422H56.9125L70.6781 38.8942L57.8366 20.8844ZM88.1941 22.8568V20.8844H116.29V22.8568H103.347V57.9413H101.086V22.8568H88.1941ZM0.128418 20.8844H2.95377L41.9095 79.5537L25.8106 57.9422L2.49084 23.6871L2.38817 57.9422H0.128418V20.8844ZM116.063 55.3742C115.6 55.3742 115.254 55.0142 115.254 54.5493C115.254 54.0835 115.6 53.7235 116.063 53.7235C116.53 53.7235 116.871 54.0835 116.871 54.5493C116.871 55.0142 116.53 55.3742 116.063 55.3742H116.063ZM118.283 53.2026H119.493C119.51 53.8622 119.989 54.3048 120.692 54.3048C121.478 54.3048 121.923 53.8293 121.923 52.9368V47.2871H123.154V52.9422C123.154 54.5493 122.231 55.4746 120.702 55.4746C119.268 55.4746 118.284 54.5768 118.284 53.2026H118.283ZM124.764 53.1315H125.985C126.089 53.8897 126.826 54.3715 127.887 54.3715C128.876 54.3715 129.602 53.856 129.602 53.1475C129.602 52.5386 129.14 52.1724 128.09 51.9235L127.067 51.6746C125.633 51.3368 124.979 50.6382 124.979 49.464C124.979 48.04 126.133 47.0924 127.864 47.0924C129.475 47.0924 130.652 48.04 130.723 49.3857H129.525C129.409 48.6497 128.772 48.1893 127.848 48.1893C126.874 48.1893 126.227 48.6604 126.227 49.3804C126.227 49.9511 126.644 50.2782 127.678 50.5217L128.552 50.7377C130.179 51.12 130.85 51.7848 130.85 52.9866C130.85 54.5155 129.672 55.4746 127.793 55.4746C126.034 55.4746 124.852 54.5608 124.764 53.1315Z" fill="white"/>
</g>
<defs>
<clipPath id="clip0_530_8982">
<rect width="131" height="80" fill="white"/>
</clipPath>
</defs>
</svg>
